<svg width="16" height="16" viewBox="0 0 16 16" fill="none" xmlns="http://www.w3.org/2000/svg">
    <path d="M5 9.5V9C4.86739 9 4.74021 9.05268 4.64645 9.14645L5 9.5ZM5.5 10C5.77614 10 6 9.77614 6 9.5C6 9.22386 5.77614 9 5.5 9V10ZM5.14645 5.35355C5.34171 5.54882 5.65829 5.54882 5.85355 5.35355C6.04882 5.15829 6.04882 4.84171 5.85355 4.64645L5.14645 5.35355ZM8.16019 3.66019L7.80664 4.01374L7.80664 4.01374L8.16019 3.66019ZM11 11.5V11H10.7929L10.6464 11.1464L11 11.5ZM8.10355 14.3964L7.75 14.0429L7.75 14.0429L8.10355 14.3964ZM2.10355 12.3964L2.45711 12.75L2.10355 12.3964ZM1 1.77346V12.1464H2V1.77346H1ZM4.64645 9.14645L1.75 12.0429L2.45711 12.75L5.35355 9.85355L4.64645 9.14645ZM5.5 9H5V10H5.5V9ZM1.80664 2.01374L5.14645 5.35355L5.85355 4.64645L2.51374 1.30664L1.80664 2.01374ZM7 3.77346V14.1464H8V3.77346H7ZM7.80664 4.01374L14.9393 11.1464L15.6464 10.4393L8.51374 3.30664L7.80664 4.01374ZM10.6464 11.1464L7.75 14.0429L8.45711 14.75L11.3536 11.8536L10.6464 11.1464ZM15 11H11V12H15V11ZM7.77346 4C7.7859 4 7.79784 4.00494 7.80664 4.01374L8.51374 3.30664C8.31741 3.1103 8.05112 3 7.77346 3V4ZM14.9393 11.1464C14.9308 11.1379 14.9202 11.1207 14.9164 11.0988C14.9131 11.0796 14.9161 11.0641 14.9207 11.053C14.9254 11.0418 14.9342 11.0287 14.9501 11.0175C14.9683 11.0047 14.9879 11 15 11V12C15.8145 12 16.2224 11.0153 15.6464 10.4393L14.9393 11.1464ZM7 14.1464C7 14.6178 7.38215 15 7.85355 15V14C7.93443 14 8 14.0656 8 14.1464H7ZM7.75 14.0429C7.77746 14.0154 7.81471 14 7.85355 14V15C8.07993 15 8.29704 14.9101 8.45711 14.75L7.75 14.0429ZM8 3.77346C8 3.89857 7.89857 4 7.77346 4V3C7.34629 3 7 3.34629 7 3.77346H8ZM1.75 12.0429C1.77746 12.0154 1.81471 12 1.85355 12V13C2.07993 13 2.29703 12.9101 2.45711 12.75L1.75 12.0429ZM1.77346 2C1.7859 2 1.79784 2.00494 1.80664 2.01374L2.51374 1.30664C2.31741 1.1103 2.05112 1 1.77346 1V2ZM1 12.1464C1 12.6178 1.38215 13 1.85355 13V12C1.93443 12 2 12.0656 2 12.1464H1ZM2 1.77346C2 1.89857 1.89857 2 1.77346 2V1C1.34629 1 1 1.34629 1 1.77346H2Z"
          fill="currentColor"/>
</svg>
