<svg width="16" height="16" viewBox="0 0 16 16" fill="none" xmlns="http://www.w3.org/2000/svg">
    <path d="M1.5 3.5V2.5C1.5 1.94772 1.94772 1.5 2.5 1.5H3.5M6.5 1.5H9.5M12.5 1.5H13.5C14.0523 1.5 14.5 1.94772 14.5 2.5V3.5M14.5 6.5V9.5M14.5 12.5V13.5C14.5 14.0523 14.0523 14.5 13.5 14.5H12.5M8.5 8.5V13.5C8.5 14.0523 8.05228 14.5 7.5 14.5H2.5C1.94772 14.5 1.5 14.0523 1.5 13.5V8.5C1.5 7.94772 1.94772 7.5 2.5 7.5H7.5C8.05228 7.5 8.5 7.94772 8.5 8.5Z"
          stroke="currentColor" stroke-linecap="round" stroke-linejoin="round"/>
</svg>
