<svg width="16" height="16" viewBox="0 0 16 16" fill="none" xmlns="http://www.w3.org/2000/svg">
<path d="M4.5 1.5H11.0858C11.351 1.5 11.6054 1.60536 11.7929 1.79289L14.2071 4.20711C14.3946 4.39464 14.5 4.649 14.5 4.91421V13.5C14.5 14.0523 14.0523 14.5 13.5 14.5H2.5C1.94772 14.5 1.5 14.0523 1.5 13.5V2.5C1.5 1.94772 1.94772 1.5 2.5 1.5H4.5ZM4.5 1.5V5C4.5 5.27614 4.72386 5.5 5 5.5H11C11.2761 5.5 11.5 5.27614 11.5 5V2" stroke="currentColor"/>
<circle cx="8" cy="10" r="2.5" stroke="currentColor"/>
</svg>
