<svg width="16" height="16" viewBox="0 0 16 16" fill="none" xmlns="http://www.w3.org/2000/svg">
    <path d="M6.50001 2.5V3.42265C6.50001 3.77992 6.30942 4.11004 6.00001 4.28868L5.78591 4.41229C5.47651 4.59092 5.09531 4.59092 4.78591 4.41229L3.98688 3.95096C3.50858 3.67482 2.89699 3.83869 2.62085 4.31699L2.12085 5.18301C1.84471 5.6613 2.00858 6.2729 2.48687 6.54904L3.28592 7.01037C3.59532 7.189 3.78592 7.51912 3.78592 7.87638L3.78592 8.1236C3.78593 8.48087 3.59533 8.81101 3.28592 8.98964L2.48689 9.45096C2.0086 9.7271 1.84472 10.3387 2.12086 10.817L2.62086 11.683C2.89701 12.1613 3.5086 12.3252 3.98689 12.049L4.78592 11.5877C5.09533 11.4091 5.47653 11.4091 5.78593 11.5877L6.00002 11.7113C6.30942 11.89 6.50001 12.2201 6.50001 12.5773V13.5C6.50001 14.0523 6.94773 14.5 7.50001 14.5H8.50001C9.0523 14.5 9.50001 14.0523 9.50001 13.5V12.5773C9.50001 12.2201 9.69061 11.89 10 11.7113L10.2141 11.5877C10.5235 11.4091 10.9047 11.4091 11.2141 11.5877L12.0132 12.049C12.4914 12.3252 13.103 12.1613 13.3792 11.683L13.8792 10.817C14.1553 10.3387 13.9914 9.7271 13.5132 9.45096L12.7141 8.98964C12.4047 8.81101 12.2141 8.48087 12.2141 8.1236L12.2141 7.87638C12.2141 7.51912 12.4047 7.189 12.7141 7.01037L13.5132 6.54904C13.9915 6.2729 14.1553 5.66131 13.8792 5.18301L13.3792 4.31699C13.1031 3.83869 12.4915 3.67482 12.0132 3.95096L11.2141 4.41229C10.9047 4.59092 10.5235 4.59092 10.2141 4.41229L10 4.28867C9.69062 4.11004 9.50001 3.77991 9.50001 3.42265V2.5C9.50001 1.94772 9.0523 1.5 8.50001 1.5H7.50001C6.94773 1.5 6.50001 1.94772 6.50001 2.5Z"
          stroke="currentColor" stroke-linecap="round" stroke-linejoin="round"/>
    <circle cx="8" cy="8" r="1.5" stroke="currentColor"/>
</svg>
